<?xml version="1.0" encoding="UTF-8" standalone="no"?>
<!DOCTYPE svg PUBLIC "-//W3C//DTD SVG 1.1//EN" "http://www.w3.org/Graphics/SVG/1.1/DTD/svg11.dtd">
<svg width="100%" height="100%" viewBox="0 0 2000 300" version="1.1" xmlns="http://www.w3.org/2000/svg" xmlns:xlink="http://www.w3.org/1999/xlink" xml:space="preserve" xmlns:serif="http://www.serif.com/" style="fill-rule:evenodd;clip-rule:evenodd;stroke-linejoin:round;stroke-miterlimit:2;">
    <g transform="matrix(6.04097,0,0,6.04097,-79.2965,-96.2371)">
        <g transform="matrix(44.1667,0,0,44.1667,14.966,54.5106)">
            <path d="M0.268,0.01C0.412,0.01 0.531,-0.061 0.531,-0.208C0.531,-0.341 0.447,-0.393 0.313,-0.438C0.208,-0.474 0.168,-0.501 0.168,-0.569C0.168,-0.629 0.211,-0.668 0.277,-0.668C0.372,-0.668 0.427,-0.606 0.448,-0.502L0.49,-0.502L0.49,-0.653C0.44,-0.689 0.365,-0.712 0.277,-0.712C0.134,-0.712 0.035,-0.626 0.035,-0.496C0.035,-0.376 0.109,-0.317 0.234,-0.277C0.35,-0.238 0.393,-0.208 0.393,-0.139C0.393,-0.073 0.344,-0.034 0.268,-0.034C0.166,-0.034 0.101,-0.113 0.077,-0.229L0.03,-0.229L0.039,-0.056C0.085,-0.019 0.17,0.01 0.268,0.01Z" style="fill-rule:nonzero;"/>
        </g>
        <g transform="matrix(44.1667,0,0,44.1667,39.5226,54.5106)">
            <path d="M0.315,-0.032C0.257,-0.032 0.233,-0.072 0.233,-0.143L0.233,-0.422C0.254,-0.438 0.281,-0.448 0.308,-0.448C0.393,-0.448 0.439,-0.375 0.439,-0.248C0.439,-0.127 0.394,-0.032 0.315,-0.032ZM0.073,0.135C0.073,0.168 0.057,0.173 0.013,0.176L0.013,0.212L0.313,0.212L0.313,0.176C0.252,0.171 0.233,0.168 0.233,0.131L0.233,-0.014C0.253,0.002 0.288,0.01 0.327,0.01C0.481,0.01 0.602,-0.1 0.602,-0.3C0.602,-0.458 0.521,-0.544 0.401,-0.544C0.319,-0.544 0.264,-0.496 0.233,-0.449L0.237,-0.544L0.208,-0.544L0.015,-0.488L0.015,-0.465L0.073,-0.43L0.073,0.135Z" style="fill-rule:nonzero;"/>
        </g>
        <g transform="matrix(44.1667,0,0,44.1667,67.6126,54.5106)">
            <path d="M0.279,-0.544C0.138,-0.544 0.022,-0.429 0.022,-0.254C0.022,-0.093 0.126,0.01 0.272,0.01C0.393,0.01 0.468,-0.06 0.494,-0.165L0.477,-0.175C0.44,-0.124 0.394,-0.098 0.327,-0.098C0.233,-0.098 0.164,-0.176 0.167,-0.307L0.49,-0.307L0.49,-0.33C0.49,-0.454 0.418,-0.544 0.279,-0.544ZM0.268,-0.505C0.327,-0.505 0.349,-0.443 0.349,-0.348L0.169,-0.348C0.175,-0.44 0.207,-0.505 0.268,-0.505Z" style="fill-rule:nonzero;"/>
        </g>
        <g transform="matrix(44.1667,0,0,44.1667,90.1376,54.5106)">
            <path d="M0.413,-0.077C0.413,-0.044 0.399,-0.039 0.356,-0.036L0.356,0L0.633,0L0.633,-0.036C0.59,-0.039 0.574,-0.044 0.574,-0.077L0.574,-0.381C0.574,-0.49 0.522,-0.544 0.427,-0.544C0.339,-0.544 0.282,-0.494 0.242,-0.445L0.246,-0.544L0.216,-0.544L0.023,-0.488L0.023,-0.465L0.081,-0.43L0.081,-0.077C0.081,-0.044 0.065,-0.039 0.022,-0.036L0.022,0L0.299,0L0.299,-0.036C0.256,-0.039 0.242,-0.044 0.242,-0.077L0.242,-0.416C0.27,-0.434 0.304,-0.448 0.341,-0.448C0.394,-0.448 0.413,-0.421 0.413,-0.369L0.413,-0.077Z" style="fill-rule:nonzero;"/>
        </g>
        <g transform="matrix(44.1667,0,0,44.1667,118.669,54.5106)">
            <path d="M0.303,-0.492C0.359,-0.492 0.385,-0.451 0.385,-0.378L0.385,-0.107C0.365,-0.092 0.341,-0.084 0.313,-0.084C0.229,-0.084 0.182,-0.172 0.182,-0.295C0.182,-0.413 0.225,-0.492 0.303,-0.492ZM0.385,-0.681L0.385,-0.509C0.361,-0.529 0.325,-0.541 0.281,-0.541C0.136,-0.541 0.022,-0.434 0.022,-0.242C0.022,-0.085 0.104,0.01 0.223,0.01C0.292,0.01 0.344,-0.025 0.385,-0.084L0.382,0.01L0.411,0.01L0.608,-0.025L0.608,-0.06L0.584,-0.061C0.548,-0.063 0.546,-0.076 0.546,-0.11L0.546,-0.783L0.52,-0.783L0.327,-0.736L0.327,-0.711L0.385,-0.681Z" style="fill-rule:nonzero;"/>
        </g>
        <g transform="matrix(44.1667,0,0,44.1667,154.179,54.5106)">
            <path d="M0.596,-0.271L0.254,-0.702L0.027,-0.702L0.027,-0.664C0.062,-0.661 0.076,-0.644 0.104,-0.601L0.104,-0.107C0.104,-0.054 0.096,-0.046 0.028,-0.038L0.028,0L0.264,0L0.264,-0.038C0.182,-0.045 0.164,-0.054 0.164,-0.107L0.164,-0.54L0.596,0.002L0.656,0.002L0.656,-0.595C0.656,-0.648 0.664,-0.656 0.733,-0.664L0.733,-0.702L0.496,-0.702L0.496,-0.664C0.578,-0.657 0.596,-0.648 0.596,-0.595L0.596,-0.271Z" style="fill-rule:nonzero;"/>
        </g>
        <g transform="matrix(44.1667,0,0,44.1667,186.863,54.5106)">
            <path d="M0.279,-0.544C0.138,-0.544 0.022,-0.429 0.022,-0.254C0.022,-0.093 0.126,0.01 0.272,0.01C0.393,0.01 0.468,-0.06 0.494,-0.165L0.477,-0.175C0.44,-0.124 0.394,-0.098 0.327,-0.098C0.233,-0.098 0.164,-0.176 0.167,-0.307L0.49,-0.307L0.49,-0.33C0.49,-0.454 0.418,-0.544 0.279,-0.544ZM0.268,-0.505C0.327,-0.505 0.349,-0.443 0.349,-0.348L0.169,-0.348C0.175,-0.44 0.207,-0.505 0.268,-0.505Z" style="fill-rule:nonzero;"/>
        </g>
        <g transform="matrix(44.1667,0,0,44.1667,209.608,54.5106)">
            <path d="M0.224,-0.667L0.19,-0.667C0.143,-0.6 0.077,-0.543 0.003,-0.512L0.003,-0.484L0.063,-0.484L0.063,-0.149C0.063,-0.034 0.125,0.01 0.211,0.01C0.287,0.01 0.34,-0.026 0.375,-0.082L0.361,-0.102C0.337,-0.084 0.314,-0.075 0.288,-0.075C0.245,-0.075 0.224,-0.098 0.224,-0.153L0.224,-0.484L0.348,-0.484L0.348,-0.534L0.224,-0.534L0.224,-0.667Z" style="fill-rule:nonzero;"/>
        </g>
        <g transform="matrix(44.1667,0,0,44.1667,225.729,54.5106)">
            <path d="M0.647,-0.19L0.557,-0.436C0.554,-0.448 0.552,-0.456 0.552,-0.464C0.552,-0.489 0.573,-0.493 0.615,-0.498L0.615,-0.534L0.341,-0.534L0.341,-0.498C0.371,-0.49 0.381,-0.481 0.388,-0.459L0.421,-0.373L0.341,-0.182L0.239,-0.436C0.234,-0.448 0.232,-0.458 0.232,-0.467C0.232,-0.486 0.249,-0.493 0.284,-0.498L0.284,-0.534L0.005,-0.534L0.005,-0.498C0.04,-0.488 0.046,-0.481 0.056,-0.459L0.26,0.006L0.31,0.006L0.446,-0.311L0.565,0.006L0.616,0.006L0.809,-0.459C0.818,-0.481 0.825,-0.488 0.86,-0.498L0.86,-0.534L0.69,-0.534L0.69,-0.498C0.73,-0.493 0.75,-0.488 0.75,-0.465C0.75,-0.458 0.748,-0.447 0.744,-0.436L0.647,-0.19Z" style="fill-rule:nonzero;"/>
        </g>
        <g transform="matrix(44.1667,0,0,44.1667,262.299,54.5106)">
            <path d="M0.294,-0.029C0.221,-0.029 0.192,-0.139 0.192,-0.295C0.192,-0.424 0.219,-0.505 0.286,-0.505C0.359,-0.505 0.388,-0.395 0.388,-0.239C0.388,-0.11 0.361,-0.029 0.294,-0.029ZM0.289,0.01C0.445,0.01 0.559,-0.109 0.559,-0.278C0.559,-0.439 0.45,-0.544 0.291,-0.544C0.135,-0.544 0.022,-0.425 0.022,-0.256C0.022,-0.095 0.13,0.01 0.289,0.01Z" style="fill-rule:nonzero;"/>
        </g>
        <g transform="matrix(44.1667,0,0,44.1667,287.916,54.5106)">
            <path d="M0.242,-0.359C0.29,-0.402 0.342,-0.405 0.405,-0.405L0.426,-0.405L0.426,-0.527C0.417,-0.537 0.401,-0.544 0.379,-0.544C0.318,-0.544 0.286,-0.506 0.242,-0.393L0.246,-0.544L0.216,-0.544L0.023,-0.488L0.023,-0.465L0.081,-0.43L0.081,-0.077C0.081,-0.044 0.065,-0.039 0.022,-0.036L0.022,0L0.324,0L0.324,-0.036C0.264,-0.042 0.242,-0.047 0.242,-0.089L0.242,-0.359Z" style="fill-rule:nonzero;"/>
        </g>
        <g transform="matrix(44.1667,0,0,44.1667,306.819,54.5106)">
            <path d="M0.247,-0.284L0.442,0L0.611,0L0.611,-0.025L0.384,-0.345L0.508,-0.461C0.533,-0.486 0.555,-0.492 0.59,-0.498L0.59,-0.534L0.371,-0.534L0.371,-0.498C0.417,-0.493 0.433,-0.489 0.433,-0.47C0.433,-0.457 0.424,-0.445 0.402,-0.425L0.247,-0.284ZM0.078,-0.077C0.078,-0.044 0.062,-0.039 0.018,-0.036L0.018,0L0.298,0L0.298,-0.036C0.254,-0.039 0.238,-0.044 0.238,-0.077L0.238,-0.783L0.212,-0.783L0.02,-0.736L0.02,-0.711L0.078,-0.681L0.078,-0.077Z" style="fill-rule:nonzero;"/>
        </g>
        <g transform="matrix(38.5855,0,0,38.5855,333.805,54.5106)">
            <path d="M0.03,-0.085C0.03,-0.03 0.072,0.01 0.125,0.01C0.177,0.01 0.219,-0.03 0.219,-0.085C0.219,-0.14 0.177,-0.18 0.125,-0.18C0.072,-0.18 0.03,-0.14 0.03,-0.085Z" style="fill:rgb(190,0,51);fill-rule:nonzero;"/>
        </g>
    </g>
</svg>
